<svg width="505" height="505" viewBox="0 0 505 505" fill="none" xmlns="http://www.w3.org/2000/svg">
<path d="M249.531 21.3842V1.20711L1.20885 249.023H22.3756L135.953 135.204L249.531 21.3842Z" fill="white"/>
<path d="M482.511 255.391H503.684L255.878 503.207L255.878 482.505L482.511 255.391Z" fill="white"/>
<path d="M255.878 21.3842L255.878 1.20711L503.684 249.023H482.518L255.878 21.3842Z" fill="white"/>
<path d="M1.20885 255.391L22.3756 255.383L249.531 482.506V503.207L1.20885 255.391Z" fill="white"/>
<path d="M249.531 21.3842V1.20711L1.20885 249.023H22.3756L135.953 135.204L249.531 21.3842Z" stroke="black"/>
<path d="M482.511 255.391H503.684L255.878 503.207L255.878 482.505L482.511 255.391Z" stroke="black"/>
<path d="M255.878 21.3842L255.878 1.20711L503.684 249.023H482.518L255.878 21.3842Z" stroke="black"/>
<path d="M1.20885 255.391L22.3756 255.383L249.531 482.506V503.207L1.20885 255.391Z" stroke="black"/>
<path d="M104.991 277.664L147.88 320.644L273.901 193.825L295.611 214.519L336.911 171.538L252.721 87.1686L210.891 129.619L232.071 151.905L104.991 277.664Z" fill="white"/>
<path d="M210.891 298.889L232.071 320.644L358.621 193.825L401.51 235.744L273.901 362.033L295.611 384.85L252.721 426.239L168.531 341.869L210.891 298.889Z" fill="white"/>
<path d="M104.991 257.5L150.528 214.519L129.348 190.11L81.6928 235.744L104.991 257.5Z" fill="white"/>
<path d="M220.422 268.112L263.311 225.132L284.491 245.295L242.131 288.807L220.422 268.112Z" fill="white"/>
<path d="M382.356 318.563L421.631 277.664L401.51 257.5L360.739 296.766L382.356 318.563Z" fill="white"/>
<path d="M104.991 277.664L147.88 320.644L273.901 193.825L295.611 214.519L336.911 171.538L252.721 87.1686L210.891 129.619L232.071 151.905L104.991 277.664Z" stroke="black"/>
<path d="M210.891 298.889L232.071 320.644L358.621 193.825L401.51 235.744L273.901 362.033L295.611 384.85L252.721 426.239L168.531 341.869L210.891 298.889Z" stroke="black"/>
<path d="M104.991 257.5L150.528 214.519L129.348 190.11L81.6928 235.744L104.991 257.5Z" stroke="black"/>
<path d="M220.422 268.112L263.311 225.132L284.491 245.295L242.131 288.807L220.422 268.112Z" stroke="black"/>
<path d="M382.356 318.563L421.631 277.664L401.51 257.5L360.739 296.766L382.356 318.563Z" stroke="black"/>
</svg>
