<svg width="503" height="502" viewBox="0 0 503 502" fill="none" xmlns="http://www.w3.org/2000/svg">
<path d="M248.322 20.1771V0L0 247.816H21.1667L134.744 133.997L248.322 20.1771Z" fill="black"/>
<path d="M481.302 254.183H502.475L254.669 502L254.669 481.298L481.302 254.183Z" fill="black"/>
<path d="M254.669 20.1771L254.669 0L502.475 247.816H481.309L254.669 20.1771Z" fill="black"/>
<path d="M0 254.183L21.1667 254.176L248.322 481.299V501.999L0 254.183Z" fill="black"/>
<path d="M103.782 276.457L146.671 319.437L272.692 192.618L294.402 213.312L335.703 170.331L251.512 85.9615L209.682 128.412L230.862 150.698L103.782 276.457Z" fill="black"/>
<path d="M209.682 297.682L230.862 319.437L357.412 192.618L400.302 234.537L272.692 360.826L294.402 383.643L251.512 425.032L167.322 340.662L209.682 297.682Z" fill="black"/>
<path d="M103.782 256.293L149.319 213.312L128.139 188.903L80.4839 234.537L103.782 256.293Z" fill="black"/>
<path d="M219.213 266.905L262.102 223.925L283.282 244.088L240.922 287.6L219.213 266.905Z" fill="black"/>
<path d="M381.147 317.356L420.423 276.457L400.302 256.293L359.53 295.559L381.147 317.356Z" fill="black"/>
<path d="M103.782 276.457L146.671 319.437L272.692 192.618L294.402 213.312L335.703 170.331L251.512 85.9615L209.682 128.412L230.862 150.698L103.782 276.457Z" stroke="black"/>
<path d="M209.682 297.682L230.862 319.437L357.412 192.618L400.302 234.537L272.692 360.826L294.402 383.643L251.512 425.032L167.322 340.662L209.682 297.682Z" stroke="black"/>
<path d="M103.782 256.293L149.319 213.312L128.139 188.903L80.4839 234.537L103.782 256.293Z" stroke="black"/>
<path d="M219.213 266.905L262.102 223.925L283.282 244.088L240.922 287.6L219.213 266.905Z" stroke="black"/>
<path d="M381.147 317.356L420.423 276.457L400.302 256.293L359.53 295.559L381.147 317.356Z" stroke="black"/>
</svg>
